<?xml version="1.0" standalone="no"?>
<!DOCTYPE svg PUBLIC "-//W3C//DTD SVG 20010904//EN"
 "http://www.w3.org/TR/2001/REC-SVG-20010904/DTD/svg10.dtd">
<svg version="1.0" xmlns="http://www.w3.org/2000/svg"
 width="400.000000pt" height="64.000000pt" viewBox="0 0 400.000000 64.000000"
 preserveAspectRatio="xMidYMid meet">

<g transform="translate(0.000000,64.000000) scale(0.100000,-0.100000)"
fill="#000000" stroke="none">
<path d="M287 573 c-4 -3 -7 -12 -7 -20 0 -10 19 -13 75 -13 75 0 86 5 63 28
-13 13 -120 17 -131 5z"/>
<path d="M318 513 c23 -2 59 -2 80 0 20 2 1 4 -43 4 -44 0 -61 -2 -37 -4z"/>
<path d="M447 514 c-4 -4 -7 -13 -7 -21 0 -10 18 -13 71 -13 62 0 70 2 67 18
-3 13 -15 18 -64 20 -33 2 -63 0 -67 -4z"/>
<path d="M280 325 l0 -165 75 0 75 0 0 165 0 165 -75 0 -75 0 0 -165z"/>
<path d="M478 453 c23 -2 59 -2 80 0 20 2 1 4 -43 4 -44 0 -61 -2 -37 -4z"/>
<path d="M440 295 l0 -135 77 0 76 0 -6 98 c-4 53 -7 114 -7 135 l0 37 -70 0
-70 0 0 -135z"/>
<path d="M211 194 c0 -11 3 -14 6 -6 3 7 2 16 -1 19 -3 4 -6 -2 -5 -13z"/>
<path d="M148 173 c7 -3 16 -2 19 1 4 3 -2 6 -13 5 -11 0 -14 -3 -6 -6z"/>
<path d="M188 163 c7 -3 16 -2 19 1 4 3 -2 6 -13 5 -11 0 -14 -3 -6 -6z"/>
<path d="M98 153 c7 -3 16 -2 19 1 4 3 -2 6 -13 5 -11 0 -14 -3 -6 -6z"/>
<path d="M148 143 c7 -3 16 -2 19 1 4 3 -2 6 -13 5 -11 0 -14 -3 -6 -6z"/>
<path d="M280 140 c0 -13 137 -13 145 0 4 6 -22 10 -69 10 -44 0 -76 -4 -76
-10z"/>
<path d="M440 143 c0 -9 139 -8 147 1 4 3 -28 6 -70 6 -43 0 -77 -3 -77 -7z"/>
<path d="M60 121 c0 -24 20 -36 76 -45 31 -6 44 -3 54 9 18 21 4 31 -58 40
-24 4 -51 9 -58 12 -9 3 -14 -2 -14 -16z"/>
<path d="M188 133 c7 -3 16 -2 19 1 4 3 -2 6 -13 5 -11 0 -14 -3 -6 -6z"/>
<path d="M280 107 c0 -25 24 -37 75 -37 51 0 75 12 75 37 0 10 -20 13 -75 13
-55 0 -75 -3 -75 -13z"/>
<path d="M442 98 c3 -20 10 -23 61 -26 59 -3 87 8 87 34 0 11 -18 14 -76 14
-72 0 -75 -1 -72 -22z"/>
</g>
</svg>
